<mxfile host="app.diagrams.net" agent="Mozilla/5.0 (Windows NT 10.0; Win64; x64) AppleWebKit/537.36 (KHTML, like Gecko) Chrome/139.0.0.0 Safari/537.36" version="28.1.2">
  <diagram name="Page-1" id="XTBlQIf0WOVnlrnQ2ykQ">
    <mxGraphModel dx="2788" dy="2151" grid="1" gridSize="10" guides="1" tooltips="1" connect="1" arrows="1" fold="1" page="1" pageScale="1" pageWidth="850" pageHeight="1100" math="0" shadow="0" adaptiveColors="auto">
      <root>
        <mxCell id="0" />
        <mxCell id="1" parent="0" />
        <mxCell id="WWu3iz0NhHjg2wSY1iC_-39" value="" style="edgeStyle=orthogonalEdgeStyle;rounded=0;orthogonalLoop=1;jettySize=auto;html=1;strokeColor=#457B9D;fontColor=#1D3557;fillColor=#A8DADC;" edge="1" parent="1" source="WWu3iz0NhHjg2wSY1iC_-37" target="WWu3iz0NhHjg2wSY1iC_-38">
          <mxGeometry relative="1" as="geometry" />
        </mxCell>
        <mxCell id="WWu3iz0NhHjg2wSY1iC_-37" value="&lt;font style=&quot;font-size: 33px;&quot;&gt;Start&lt;/font&gt;" style="ellipse;whiteSpace=wrap;html=1;strokeColor=#36393d;fillColor=#cdeb8b;" vertex="1" parent="1">
          <mxGeometry x="50" y="60" width="300" height="80" as="geometry" />
        </mxCell>
        <mxCell id="WWu3iz0NhHjg2wSY1iC_-49" value="" style="edgeStyle=orthogonalEdgeStyle;rounded=0;orthogonalLoop=1;jettySize=auto;html=1;strokeColor=#457B9D;fontColor=#1D3557;fillColor=#A8DADC;" edge="1" parent="1" source="WWu3iz0NhHjg2wSY1iC_-38" target="WWu3iz0NhHjg2wSY1iC_-48">
          <mxGeometry relative="1" as="geometry" />
        </mxCell>
        <mxCell id="WWu3iz0NhHjg2wSY1iC_-38" value="&lt;font style=&quot;font-size: 23px;&quot;&gt;New User&lt;/font&gt;&lt;div&gt;&lt;font style=&quot;font-size: 23px;&quot;&gt;?&lt;/font&gt;&lt;/div&gt;" style="rhombus;whiteSpace=wrap;html=1;fillColor=#f8cecc;strokeColor=#b85450;gradientColor=#ea6b66;" vertex="1" parent="1">
          <mxGeometry x="95" y="220" width="210" height="170" as="geometry" />
        </mxCell>
        <mxCell id="WWu3iz0NhHjg2wSY1iC_-43" value="" style="edgeStyle=orthogonalEdgeStyle;rounded=0;orthogonalLoop=1;jettySize=auto;html=1;strokeColor=#457B9D;fontColor=#1D3557;fillColor=#A8DADC;" edge="1" parent="1" source="WWu3iz0NhHjg2wSY1iC_-40" target="WWu3iz0NhHjg2wSY1iC_-42">
          <mxGeometry relative="1" as="geometry" />
        </mxCell>
        <mxCell id="WWu3iz0NhHjg2wSY1iC_-51" value="" style="edgeStyle=orthogonalEdgeStyle;rounded=0;orthogonalLoop=1;jettySize=auto;html=1;strokeColor=#457B9D;fontColor=#1D3557;fillColor=#A8DADC;exitX=0;exitY=0.5;exitDx=0;exitDy=0;entryX=1;entryY=0.5;entryDx=0;entryDy=0;" edge="1" parent="1" source="WWu3iz0NhHjg2wSY1iC_-50" target="WWu3iz0NhHjg2wSY1iC_-40">
          <mxGeometry relative="1" as="geometry">
            <mxPoint x="410" y="610" as="targetPoint" />
          </mxGeometry>
        </mxCell>
        <mxCell id="WWu3iz0NhHjg2wSY1iC_-40" value="&lt;font style=&quot;font-size: 21px;&quot;&gt;Recognize The Face&lt;/font&gt;&amp;nbsp;" style="shape=parallelogram;perimeter=parallelogramPerimeter;whiteSpace=wrap;html=1;fixedSize=1;strokeColor=#457B9D;fontColor=#1D3557;fillColor=#A8DADC;" vertex="1" parent="1">
          <mxGeometry x="50" y="480" width="310" height="100" as="geometry" />
        </mxCell>
        <mxCell id="WWu3iz0NhHjg2wSY1iC_-41" value="" style="endArrow=classic;html=1;rounded=0;strokeColor=#457B9D;fontColor=#1D3557;fillColor=#A8DADC;exitX=0.5;exitY=1;exitDx=0;exitDy=0;" edge="1" parent="1" source="WWu3iz0NhHjg2wSY1iC_-38">
          <mxGeometry width="50" height="50" relative="1" as="geometry">
            <mxPoint x="480" y="500" as="sourcePoint" />
            <mxPoint x="200" y="480" as="targetPoint" />
            <Array as="points" />
          </mxGeometry>
        </mxCell>
        <mxCell id="WWu3iz0NhHjg2wSY1iC_-42" value="&lt;font style=&quot;font-size: 20px;&quot;&gt;Face Recoganized&lt;/font&gt;" style="rhombus;whiteSpace=wrap;html=1;fillColor=#ffcd28;strokeColor=#d79b00;gradientColor=#ffa500;" vertex="1" parent="1">
          <mxGeometry x="90" y="670" width="230" height="140" as="geometry" />
        </mxCell>
        <mxCell id="WWu3iz0NhHjg2wSY1iC_-46" value="" style="edgeStyle=orthogonalEdgeStyle;rounded=0;orthogonalLoop=1;jettySize=auto;html=1;strokeColor=#457B9D;fontColor=#1D3557;fillColor=#A8DADC;" edge="1" parent="1" source="WWu3iz0NhHjg2wSY1iC_-44" target="WWu3iz0NhHjg2wSY1iC_-45">
          <mxGeometry relative="1" as="geometry" />
        </mxCell>
        <mxCell id="WWu3iz0NhHjg2wSY1iC_-44" value="&lt;font style=&quot;font-size: 14px;&quot;&gt;Store in CSV file with Registration Number &amp;amp;&lt;/font&gt;&lt;div&gt;&lt;font style=&quot;font-size: 14px;&quot;&gt;&amp;nbsp;Date - time of Entry&lt;/font&gt;&lt;/div&gt;" style="shape=parallelogram;perimeter=parallelogramPerimeter;whiteSpace=wrap;html=1;fixedSize=1;strokeColor=#B09500;fontColor=#000000;fillColor=#e3c800;" vertex="1" parent="1">
          <mxGeometry x="60" y="880" width="310" height="100" as="geometry" />
        </mxCell>
        <mxCell id="WWu3iz0NhHjg2wSY1iC_-45" value="&lt;font style=&quot;font-size: 30px;&quot;&gt;End&lt;/font&gt;" style="ellipse;whiteSpace=wrap;html=1;fillColor=#f5f5f5;strokeColor=#666666;gradientColor=#b3b3b3;" vertex="1" parent="1">
          <mxGeometry x="60" y="1070" width="310" height="100" as="geometry" />
        </mxCell>
        <mxCell id="WWu3iz0NhHjg2wSY1iC_-47" value="" style="endArrow=classic;html=1;rounded=0;strokeColor=#457B9D;fontColor=#1D3557;fillColor=#A8DADC;exitX=0.5;exitY=1;exitDx=0;exitDy=0;entryX=0.47;entryY=-0.034;entryDx=0;entryDy=0;entryPerimeter=0;" edge="1" parent="1" source="WWu3iz0NhHjg2wSY1iC_-42" target="WWu3iz0NhHjg2wSY1iC_-44">
          <mxGeometry width="50" height="50" relative="1" as="geometry">
            <mxPoint x="480" y="680" as="sourcePoint" />
            <mxPoint x="530" y="630" as="targetPoint" />
          </mxGeometry>
        </mxCell>
        <mxCell id="WWu3iz0NhHjg2wSY1iC_-48" value="&lt;font style=&quot;font-size: 20px;&quot;&gt;Give Your Photograph&lt;/font&gt;" style="whiteSpace=wrap;html=1;fillColor=#6a00ff;strokeColor=#3700CC;fontColor=#ffffff;" vertex="1" parent="1">
          <mxGeometry x="430" y="270" width="260" height="70" as="geometry" />
        </mxCell>
        <mxCell id="WWu3iz0NhHjg2wSY1iC_-50" value="&lt;font style=&quot;font-size: 15px;&quot;&gt;Stored the face date in folder on your name&lt;/font&gt;" style="whiteSpace=wrap;html=1;fillColor=#76608a;strokeColor=#432D57;fontColor=#ffffff;" vertex="1" parent="1">
          <mxGeometry x="430" y="500" width="260" height="60" as="geometry" />
        </mxCell>
        <mxCell id="WWu3iz0NhHjg2wSY1iC_-52" value="" style="endArrow=classic;html=1;rounded=0;strokeColor=#457B9D;fontColor=#1D3557;fillColor=#A8DADC;exitX=1;exitY=0.5;exitDx=0;exitDy=0;entryX=0.446;entryY=-0.013;entryDx=0;entryDy=0;entryPerimeter=0;" edge="1" parent="1">
          <mxGeometry width="50" height="50" relative="1" as="geometry">
            <mxPoint x="326.0000000000002" y="740" as="sourcePoint" />
            <mxPoint x="551.96" y="269.0899999999999" as="targetPoint" />
            <Array as="points">
              <mxPoint x="780" y="750" />
              <mxPoint x="786" y="200" />
              <mxPoint x="552" y="200" />
            </Array>
          </mxGeometry>
        </mxCell>
        <mxCell id="WWu3iz0NhHjg2wSY1iC_-53" value="" style="endArrow=none;html=1;rounded=0;strokeColor=#457B9D;fontColor=#1D3557;fillColor=#A8DADC;exitX=0.5;exitY=0;exitDx=0;exitDy=0;entryX=0.5;entryY=1;entryDx=0;entryDy=0;" edge="1" parent="1" source="WWu3iz0NhHjg2wSY1iC_-50" target="WWu3iz0NhHjg2wSY1iC_-48">
          <mxGeometry width="50" height="50" relative="1" as="geometry">
            <mxPoint x="240" y="370" as="sourcePoint" />
            <mxPoint x="290" y="320" as="targetPoint" />
          </mxGeometry>
        </mxCell>
        <mxCell id="WWu3iz0NhHjg2wSY1iC_-55" value="&lt;font style=&quot;font-size: 29px;&quot;&gt;No&lt;/font&gt;" style="text;html=1;align=center;verticalAlign=middle;resizable=0;points=[];autosize=1;strokeColor=none;fillColor=none;fontColor=#1D3557;" vertex="1" parent="1">
          <mxGeometry x="530" y="688" width="60" height="50" as="geometry" />
        </mxCell>
        <mxCell id="WWu3iz0NhHjg2wSY1iC_-56" value="&lt;font style=&quot;font-size: 33px;&quot;&gt;Yes&lt;/font&gt;" style="text;html=1;align=center;verticalAlign=middle;resizable=0;points=[];autosize=1;strokeColor=none;fillColor=none;fontColor=#1D3557;" vertex="1" parent="1">
          <mxGeometry x="300" y="248" width="80" height="50" as="geometry" />
        </mxCell>
        <mxCell id="WWu3iz0NhHjg2wSY1iC_-57" value="&lt;font style=&quot;font-size: 28px;&quot;&gt;No&lt;/font&gt;" style="text;html=1;align=center;verticalAlign=middle;resizable=0;points=[];autosize=1;strokeColor=none;fillColor=none;fontColor=#1D3557;" vertex="1" parent="1">
          <mxGeometry x="110" y="398" width="60" height="50" as="geometry" />
        </mxCell>
        <mxCell id="WWu3iz0NhHjg2wSY1iC_-58" value="&lt;font style=&quot;font-size: 29px;&quot;&gt;Yes&lt;/font&gt;" style="text;html=1;align=center;verticalAlign=middle;resizable=0;points=[];autosize=1;strokeColor=none;fillColor=none;fontColor=#1D3557;" vertex="1" parent="1">
          <mxGeometry x="85" y="808" width="70" height="50" as="geometry" />
        </mxCell>
        <mxCell id="WWu3iz0NhHjg2wSY1iC_-59" value="&lt;font style=&quot;font-size: 34px;&quot;&gt;Design a DevOps Visualization Diagram- Face Recognition Attendance System&lt;/font&gt;" style="text;html=1;align=center;verticalAlign=middle;resizable=0;points=[];autosize=1;strokeColor=none;fillColor=none;fontColor=#1D3557;" vertex="1" parent="1">
          <mxGeometry x="-290" y="-110" width="1220" height="50" as="geometry" />
        </mxCell>
      </root>
    </mxGraphModel>
  </diagram>
</mxfile>
